<?xml version="1.0" standalone="no"?>
<!DOCTYPE svg PUBLIC "-//W3C//DTD SVG 20010904//EN"
 "http://www.w3.org/TR/2001/REC-SVG-20010904/DTD/svg10.dtd">
<svg version="1.0" xmlns="http://www.w3.org/2000/svg"
 width="225.000000pt" height="225.000000pt" viewBox="0 0 225.000000 225.000000"
 preserveAspectRatio="xMidYMid meet">
<metadata>
Created by potrace 1.14, written by Peter Selinger 2001-2017
</metadata>
<g transform="translate(0.000000,225.000000) scale(0.100000,-0.100000)"
fill="#000000" stroke="none">
<path d="M580 2235 c0 -8 5 -15 10 -15 6 0 10 7 10 15 0 8 -4 15 -10 15 -5 0
-10 -7 -10 -15z"/>
<path d="M1355 2138 c1 -88 -3 -120 -16 -143 -51 -91 -59 -107 -59 -119 0 -13
54 -40 103 -50 18 -4 27 -13 27 -26 0 -11 -3 -20 -6 -20 -8 0 -67 25 -120 51
-35 17 -45 19 -62 8 -15 -9 -27 -10 -43 -3 l-23 10 22 22 22 22 -76 0 c-67 0
-141 -11 -184 -27 -8 -4 -18 -6 -22 -5 -4 1 -10 -7 -13 -19 -4 -11 -28 -29
-53 -41 -26 -12 -53 -30 -60 -40 -7 -10 -18 -18 -24 -18 -7 0 1 14 17 30 16
17 34 30 40 30 6 0 24 13 39 29 23 24 25 30 13 43 -8 7 -20 30 -27 51 -20 54
-50 83 -109 106 -51 21 -147 26 -157 9 -3 -4 2 -8 11 -8 9 0 13 -5 10 -10 -4
-6 -12 -9 -20 -8 -16 4 -65 -48 -65 -69 0 -9 -6 -13 -15 -9 -9 3 -15 0 -15 -9
0 -8 -11 -17 -25 -21 -16 -4 -25 -13 -25 -25 0 -10 -3 -19 -8 -19 -4 0 -5 -30
-2 -67 6 -78 45 -158 86 -173 24 -9 30 -21 17 -33 -3 -4 -12 2 -20 13 -7 10
-30 22 -49 26 -27 5 -40 14 -51 38 l-14 31 5 -36 c3 -26 -1 -42 -13 -55 -20
-22 -30 -117 -10 -97 6 6 18 9 25 6 8 -3 17 2 20 11 7 17 34 22 34 6 0 -5 7
-10 15 -10 22 0 18 -24 -6 -46 -18 -17 -21 -17 -18 -2 2 9 0 18 -6 20 -5 2
-11 -12 -13 -29 -2 -19 1 -33 7 -33 6 0 11 -4 11 -10 0 -15 -16 -12 -34 5 -17
17 -26 19 -26 6 0 -5 9 -13 21 -16 29 -10 20 -41 -11 -37 l-25 3 23 -19 c25
-19 25 -13 4 -172 -9 -67 10 -134 44 -157 15 -9 24 -25 24 -40 0 -13 17 -67
37 -119 29 -72 42 -94 57 -94 15 0 16 -3 6 -15 -15 -18 -30 -19 -30 -2 0 6
-14 18 -30 25 -17 8 -27 18 -24 24 5 7 2 8 -6 3 -8 -5 -24 -9 -37 -10 -17 0
-23 5 -23 20 0 12 -5 26 -11 32 -9 9 -15 29 -18 56 -1 4 -8 7 -17 7 -13 0 -15
7 -11 35 3 21 2 33 -4 30 -15 -10 -10 17 8 37 11 13 12 18 3 18 -10 0 -10 3 0
15 10 12 9 16 -4 21 -11 4 -14 13 -10 30 4 15 2 24 -5 24 -17 0 -26 -30 -14
-49 7 -11 6 -32 -5 -70 -14 -49 -14 -55 3 -87 15 -28 16 -37 5 -47 -9 -9 -14
-9 -17 -1 -4 12 -40 8 -59 -8 -7 -5 -14 -3 -18 7 -9 25 -43 18 -50 -10 -10
-37 -23 -30 -18 10 4 33 3 35 -19 27 -13 -5 -28 -19 -34 -30 -10 -23 -31 -31
-22 -10 3 7 8 20 12 29 4 10 0 19 -10 23 -11 4 -19 -2 -25 -20 -16 -42 -12
-51 28 -59 20 -4 43 -12 50 -17 9 -8 18 -6 32 7 17 15 20 16 20 3 0 -9 7 -18
15 -22 11 -4 15 2 16 22 l1 27 10 -27 c6 -17 17 -28 28 -28 26 0 36 21 16 32
-9 5 -16 14 -16 21 0 7 4 6 10 -3 7 -12 12 -12 22 -2 20 20 28 14 28 -23 0
-36 8 -43 27 -24 8 8 13 5 18 -11 5 -14 2 -25 -6 -31 -14 -9 -49 6 -49 22 0 5
-14 2 -31 -6 -28 -15 -33 -15 -54 -1 -18 12 -31 13 -49 6 -21 -7 -28 -6 -39
11 -13 17 -18 18 -42 7 -23 -10 -28 -10 -36 5 -11 19 -45 22 -69 7 -25 -16 1
-45 42 -45 19 0 42 -6 51 -13 9 -8 25 -11 37 -7 13 4 31 0 45 -9 18 -12 30
-13 50 -6 20 8 30 7 41 -5 18 -18 29 -19 56 -4 16 9 26 7 48 -9 21 -16 30 -18
39 -9 8 8 18 5 37 -14 l25 -26 -33 -13 c-18 -8 -56 -29 -85 -48 -51 -33 -64
-54 -141 -210 -9 -17 -22 -32 -29 -32 -7 0 -13 -4 -13 -10 0 -5 -4 -10 -10
-10 -19 0 -10 24 16 45 14 11 26 27 27 35 2 8 17 36 35 62 17 26 32 56 32 66
0 11 6 23 13 25 6 3 1 6 -12 6 -17 1 -22 -3 -17 -15 3 -8 2 -12 -4 -9 -6 3
-10 1 -10 -4 0 -7 -35 -11 -95 -11 -57 0 -95 4 -95 10 0 6 4 10 9 10 5 0 7 10
3 22 -3 14 -1 19 6 14 6 -3 13 -2 17 3 7 12 -18 26 -62 36 l-33 7 0 -321 0
-321 985 0 984 0 -25 66 c-14 37 -23 71 -21 77 2 8 29 -57 52 -130 3 -10 40
-13 140 -13 l135 0 0 249 0 249 -35 4 c-19 2 -39 0 -44 -5 -9 -9 -13 3 -27 87
-6 35 -5 38 13 32 13 -4 25 0 33 9 9 11 22 14 37 10 20 -5 23 -2 23 26 0 28
-1 29 -16 14 -16 -16 -53 -12 -65 8 -8 12 -31 -1 -24 -14 4 -5 2 -9 -4 -9 -21
0 -36 54 -22 75 11 15 12 63 2 69 -5 3 -11 -9 -15 -26 l-6 -32 -18 34 c-9 19
-22 35 -29 35 -7 0 -18 6 -24 12 -19 19 -29 16 -29 -7 0 -18 -2 -19 -22 -8
-13 7 -31 19 -40 27 -16 13 -18 11 -18 -15 0 -23 7 -32 33 -44 29 -14 32 -19
33 -62 l2 -48 -50 0 c-37 0 -55 5 -64 18 -17 22 -18 62 -1 62 25 0 35 21 27
52 -6 18 -5 38 2 53 10 23 12 23 35 8 18 -12 27 -13 35 -5 9 9 6 18 -12 37
-31 33 -43 32 -62 -7 -15 -31 -16 -31 -16 -8 0 14 10 45 21 70 24 51 36 192
19 213 -13 15 -42 97 -42 119 0 25 -58 148 -69 148 -6 0 -7 -7 -4 -17 4 -11 3
-14 -5 -9 -7 4 -12 17 -12 29 0 12 -9 42 -20 66 -11 24 -20 48 -20 55 0 8 47
11 158 12 86 1 158 5 160 8 1 3 2 17 2 31 l0 25 -172 0 c-127 0 -169 -3 -158
-11 13 -9 12 -10 -3 -5 -19 6 -126 87 -126 96 0 3 19 17 42 32 29 18 47 39 56
65 18 48 16 136 -4 176 -8 16 -15 39 -15 49 0 10 -8 21 -17 25 -10 3 -31 15
-46 26 -16 11 -37 17 -49 14 -12 -3 -34 -3 -49 0 -29 5 -29 6 -29 79 l0 74
-73 0 -72 0 0 -112z m119 37 c5 -42 4 -56 -3 -45 -6 8 -11 11 -11 6 0 -5 7
-17 15 -26 13 -15 12 -19 -16 -46 -17 -16 -30 -24 -29 -19 5 23 -1 25 -22 11
-28 -20 -39 -20 -31 -1 3 9 8 13 11 11 3 -3 11 -1 18 5 8 6 20 9 27 6 12 -5
20 36 19 93 -1 20 9 72 13 68 1 -2 6 -30 9 -63z m-704 -305 c0 -5 -4 -10 -10
-10 -5 0 -10 5 -10 10 0 6 5 10 10 10 6 0 10 -4 10 -10z m-37 -26 c-7 -3 -17
-21 -23 -40 -12 -37 -33 -41 -38 -8 -2 18 38 52 63 52 6 0 5 -2 -2 -4z m745
-63 c13 -7 21 -15 18 -18 -8 -8 -56 26 -56 40 0 8 3 9 8 1 4 -6 18 -17 30 -23z
m-793 -21 c3 -5 2 -10 -4 -10 -5 0 -13 5 -16 10 -3 6 -2 10 4 10 5 0 13 -4 16
-10z m795 -14 c0 -2 -9 -2 -20 1 -11 3 -20 9 -20 15 0 5 9 4 20 -2 11 -6 20
-12 20 -14z m74 -9 c29 -23 29 -24 8 -29 -12 -4 -20 -2 -17 3 3 4 -3 14 -15
21 -20 13 -27 28 -12 28 4 0 20 -11 36 -23z m-854 -22 c0 -8 5 -15 12 -15 6 0
9 -2 6 -5 -3 -3 -13 -3 -22 1 -17 7 -22 34 -6 34 6 0 10 -7 10 -15z m-10 -45
c0 -5 -4 -10 -10 -10 -5 0 -12 -11 -16 -25 -3 -13 -12 -29 -20 -36 -15 -12
-19 0 -6 17 4 5 -3 -1 -15 -13 -13 -12 -23 -31 -23 -43 0 -11 -5 -20 -11 -20
-5 0 -7 -4 -4 -10 3 -5 1 -10 -4 -10 -6 0 -11 5 -11 10 0 6 -7 6 -19 -1 -10
-7 -16 -20 -14 -29 2 -9 -3 -22 -12 -30 -15 -12 -16 -10 -9 16 4 16 13 37 21
46 8 9 12 21 9 26 -10 16 5 44 20 38 12 -5 95 56 102 75 5 12 22 11 22 -1z
m723 -65 c32 -14 64 -25 73 -25 8 0 43 -14 77 -32 34 -17 71 -31 83 -29 16 1
25 -7 35 -31 8 -18 13 -36 11 -40 -1 -5 3 -8 8 -8 6 0 10 -5 10 -10 0 -17 44
-80 57 -80 16 0 33 -54 40 -128 6 -59 4 -63 -16 -69 -11 -3 -21 -9 -21 -14 0
-5 -9 -9 -19 -9 -10 0 -21 -7 -25 -15 -3 -8 -14 -15 -24 -15 -22 0 -46 -25
-38 -38 3 -6 -1 -15 -9 -22 -10 -9 -15 -9 -15 -1 0 18 -28 13 -50 -9 -11 -11
-27 -20 -35 -20 -16 0 -38 -34 -28 -44 3 -3 3 -6 -1 -6 -3 0 -11 10 -17 23 -9
20 -9 20 -6 1 5 -23 -27 -73 -39 -61 -4 4 -2 13 4 19 23 23 14 55 -19 67 -18
6 -33 11 -34 11 -1 0 -5 -14 -9 -32 -4 -22 -1 -37 10 -50 16 -16 15 -19 -2
-17 -3 0 -26 -21 -51 -48 -36 -39 -44 -43 -38 -23 30 98 22 145 -35 205 l-39
40 15 55 c8 30 14 72 14 93 l0 38 28 -21 c15 -12 42 -28 61 -36 31 -13 37 -12
83 13 31 17 58 41 71 65 15 24 28 36 41 35 10 -1 20 4 22 11 1 7 0 8 -3 2 -8
-16 -26 -11 -19 6 3 8 2 12 -4 9 -6 -3 -10 4 -10 16 0 28 -34 83 -63 101 -58
38 -150 27 -204 -24 l-23 -21 0 21 c0 11 4 24 10 27 5 3 23 33 39 67 22 45 28
66 21 79 -15 27 -12 34 8 16 10 -9 44 -28 75 -42z m-956 -17 c-3 -8 -6 -5 -6
6 -1 11 2 17 5 13 3 -3 4 -12 1 -19z m438 -28 c9 -17 27 -35 40 -40 14 -5 27
-20 31 -34 4 -16 11 -23 20 -19 17 6 18 -9 4 -56 -7 -24 -6 -39 2 -48 6 -8 12
-49 12 -94 1 -43 4 -79 8 -79 4 0 10 -9 13 -20 3 -11 13 -20 21 -20 8 0 14 -7
14 -15 0 -8 5 -24 12 -35 10 -16 9 -23 -9 -42 -31 -33 -53 -94 -53 -144 0 -37
6 -49 40 -85 22 -23 38 -44 35 -47 -7 -8 -69 21 -86 40 -9 10 -26 18 -39 18
-17 0 -21 -4 -17 -20 5 -21 -8 -37 -17 -21 -3 4 -18 7 -34 5 -22 -2 -38 5 -66
32 -42 40 -61 40 -61 0 1 -31 -19 -29 -23 2 -2 12 -8 22 -13 22 -5 0 -9 7 -9
15 0 8 -6 15 -13 15 -8 0 -20 11 -27 25 -7 14 -17 25 -22 25 -11 0 -10 -7 3
-33 9 -18 9 -20 -2 -9 -7 6 -21 12 -30 12 -10 0 -25 7 -34 16 -8 9 -22 13 -31
10 -11 -4 -14 -1 -10 12 4 12 -3 23 -24 35 -20 12 -30 26 -30 43 0 13 -4 24
-10 24 -15 0 -12 26 14 130 46 185 71 219 225 310 36 21 82 52 101 69 19 17
38 30 42 31 4 0 15 -14 23 -30z m600 -120 c3 -6 -1 -7 -9 -4 -18 7 -21 14 -7
14 6 0 13 -4 16 -10z m-21 -19 c21 -17 21 -91 1 -117 -15 -18 -16 -17 -10 13
9 44 -2 72 -32 84 -28 11 -63 -4 -63 -26 0 -8 -4 -15 -10 -15 -13 0 -13 -47 0
-55 10 -6 2 -35 -10 -35 -14 0 -70 61 -70 76 0 9 5 12 10 9 6 -3 10 -2 10 4 0
5 -5 11 -11 13 -7 2 1 18 17 37 27 32 30 33 90 29 34 -2 69 -10 78 -17z m-6
-146 c-10 -10 -49 -14 -43 -4 4 5 16 9 27 9 12 0 19 -2 16 -5z m369 -67 c-2
-13 -4 -5 -4 17 -1 22 1 32 4 23 2 -10 2 -28 0 -40z m53 -19 c0 -10 -4 -19
-10 -19 -5 0 -10 12 -10 26 0 14 4 23 10 19 6 -3 10 -15 10 -26z m0 -386 c0
-7 -4 -13 -10 -13 -5 0 -10 12 -10 28 0 21 2 24 10 12 5 -8 10 -21 10 -27z
m-1270 -69 c0 -8 -4 -12 -10 -9 -5 3 -10 10 -10 16 0 5 5 9 10 9 6 0 10 -7 10
-16z m1435 -44 c8 0 17 -4 20 -10 4 -6 -5 -10 -19 -10 -21 0 -26 5 -25 23 0
12 3 16 6 10 2 -7 11 -13 18 -13z m-9 -168 c49 -68 58 -91 45 -123 -9 -22 -10
-21 -10 14 -1 20 -5 37 -9 37 -5 0 -17 19 -27 43 -10 23 -28 52 -39 65 -11 12
-15 22 -10 22 5 0 28 -26 50 -58z m-1579 -74 c-3 -8 -6 -5 -6 6 -1 11 2 17 5
13 3 -3 4 -12 1 -19z m-272 -8 c6 0 3 -4 -5 -9 -19 -10 -110 -2 -110 9 0 5 24
7 53 5 28 -2 57 -5 62 -5z m1940 -59 c-3 -6 -11 -11 -17 -11 -6 0 -6 6 2 15
14 17 26 13 15 -4z m-2068 -163 c-3 -8 -6 -5 -6 6 -1 11 2 17 5 13 3 -3 4 -12
1 -19z"/>
<path d="M1546 1303 c-6 -14 -5 -15 5 -6 7 7 10 15 7 18 -3 3 -9 -2 -12 -12z"/>
<path d="M1566 1145 c-25 -19 -17 -46 21 -68 32 -18 33 -18 55 2 18 18 20 26
12 49 -7 21 -16 27 -39 29 -17 0 -39 -5 -49 -12z"/>
<path d="M803 1404 c-18 -9 -53 -38 -78 -65 -42 -45 -45 -52 -45 -104 0 -31 4
-55 10 -55 6 0 20 -9 32 -20 38 -35 87 -53 130 -46 90 14 138 66 138 146 0 65
-26 111 -80 138 -52 26 -64 27 -107 6z m92 -60 c9 -4 25 -24 36 -46 16 -32 18
-46 10 -69 -19 -54 -87 -99 -106 -69 -3 5 -14 10 -25 10 -10 0 -21 7 -24 16
-5 13 -9 14 -20 5 -11 -9 -15 -8 -20 5 -10 25 -7 92 4 99 6 4 8 11 5 16 -4 5
-5 9 -3 9 2 0 21 7 43 15 44 16 75 18 100 9z"/>
<path d="M813 1309 c-23 -8 -37 -44 -31 -75 5 -29 52 -50 85 -38 24 8 28 16
31 50 4 56 -32 83 -85 63z m43 -34 c4 -8 3 -23 0 -32 -6 -15 -8 -15 -16 -3
-13 20 -12 50 0 50 6 0 13 -7 16 -15z m-36 -31 c0 -8 -4 -12 -10 -9 -5 3 -10
13 -10 21 0 8 5 12 10 9 6 -3 10 -13 10 -21z"/>
<path d="M528 1198 c-12 -30 -20 -114 -10 -99 5 7 14 11 20 7 6 -3 8 12 5 42
-6 62 -8 69 -15 50z"/>
<path d="M510 1060 c0 -5 5 -10 10 -10 6 0 10 5 10 10 0 6 -4 10 -10 10 -5 0
-10 -4 -10 -10z"/>
<path d="M660 990 c-8 -16 -8 -22 4 -26 8 -3 17 -16 20 -30 5 -17 13 -24 30
-24 55 0 55 57 0 84 -43 20 -41 20 -54 -4z"/>
<path d="M850 831 c0 -6 4 -13 10 -16 6 -3 7 1 4 9 -7 18 -14 21 -14 7z"/>
<path d="M50 2221 c0 -5 7 -12 16 -15 8 -3 12 -10 9 -16 -3 -5 -1 -10 4 -10
15 0 14 23 -1 38 -14 14 -28 16 -28 3z"/>
<path d="M2221 2214 c0 -11 3 -14 6 -6 3 7 2 16 -1 19 -3 4 -6 -2 -5 -13z"/>
<path d="M40 2190 c-13 -9 -13 -11 0 -20 22 -14 34 -12 21 3 -6 8 -8 17 -4 20
9 10 0 8 -17 -3z"/>
<path d="M373 2175 c-8 -17 -8 -27 -1 -32 12 -7 38 23 38 44 0 22 -24 14 -37
-12z"/>
<path d="M2233 2169 c-10 -26 -10 -40 -1 -67 13 -33 12 -35 -27 -68 -22 -19
-49 -34 -60 -34 -17 0 -20 -6 -19 -48 1 -72 22 -117 37 -79 3 7 6 5 6 -5 1
-11 6 -15 16 -12 9 4 15 0 15 -10 0 -9 5 -16 10 -16 6 0 10 5 10 12 0 26 19
-8 23 -42 2 -19 4 20 4 88 0 78 -4 122 -11 122 -6 0 -5 5 2 12 13 13 15 63 3
93 -5 11 -4 25 1 32 5 7 8 22 6 34 -3 18 -5 17 -15 -12z m-9 -195 c3 -9 6 -28
6 -43 0 -25 -3 -27 -45 -27 l-45 0 6 36 c4 19 9 38 11 43 8 14 61 7 67 -9z"/>
<path d="M2172 1948 c5 -32 28 -35 28 -4 0 17 -5 26 -16 26 -10 0 -14 -7 -12
-22z"/>
<path d="M555 2150 c-8 -25 3 -62 16 -54 5 3 6 11 2 17 -4 7 -6 22 -4 35 3 27
-5 29 -14 2z"/>
<path d="M1 2115 c0 -42 2 -46 11 -28 7 15 7 30 0 50 -10 26 -10 24 -11 -22z"/>
<path d="M620 2141 c0 -19 17 -38 25 -29 7 7 -7 48 -16 48 -5 0 -9 -9 -9 -19z"/>
<path d="M36 2125 c-3 -8 -1 -15 4 -15 6 0 10 7 10 15 0 8 -2 15 -4 15 -2 0
-6 -7 -10 -15z"/>
<path d="M2190 2095 c-8 -10 -9 -15 -2 -15 6 0 9 -7 5 -16 -4 -12 -2 -15 8
-12 17 6 24 37 12 49 -6 6 -15 4 -23 -6z"/>
<path d="M24 2064 c-4 -14 -2 -30 5 -37 8 -8 11 -5 11 14 0 19 2 21 10 9 12
-20 21 -9 13 18 -7 30 -31 28 -39 -4z"/>
<path d="M552 2060 c0 -14 2 -19 5 -12 2 6 2 18 0 25 -3 6 -5 1 -5 -13z"/>
<path d="M340 1999 c-1 -30 -2 -32 -14 -17 -7 10 -16 15 -20 11 -3 -3 1 -15
11 -25 9 -10 13 -21 9 -25 -4 -4 -11 -1 -16 6 -12 21 -104 25 -120 6 -7 -8
-10 -19 -6 -23 4 -4 12 1 17 10 11 20 64 15 89 -9 13 -12 13 -13 -4 -7 -17 7
-18 4 -12 -29 5 -29 4 -37 -8 -37 -9 0 -13 -6 -10 -14 4 -12 -1 -14 -23 -10
-47 8 -52 12 -56 51 -3 35 -4 34 -5 -11 -2 -35 -9 -56 -27 -78 -26 -31 -33
-82 -13 -94 20 -13 88 -22 88 -12 0 5 5 6 10 3 18 -11 10 -25 -15 -25 -14 0
-25 -5 -25 -11 0 -6 9 -9 20 -6 18 5 20 2 14 -16 -4 -12 -8 -29 -10 -37 -6
-36 -17 -60 -29 -60 -7 0 -37 5 -66 10 -47 9 -56 8 -66 -7 -16 -20 -17 -92 -3
-129 10 -24 7 -31 -21 -60 -17 -18 -29 -39 -26 -46 3 -8 31 -20 63 -27 33 -6
78 -16 102 -21 66 -15 65 -16 58 48 -6 55 -5 57 23 74 30 16 76 90 64 102 -4
3 -1 6 5 6 7 0 12 4 12 9 0 5 -21 13 -47 17 -33 6 -49 15 -51 27 -4 18 24 25
30 7 2 -5 19 -12 38 -15 l35 -6 -30 15 c-16 8 -23 15 -15 15 9 1 26 -6 38 -15
20 -14 22 -14 24 3 0 10 2 23 2 30 1 6 5 15 9 19 10 10 9 52 -2 59 -5 3 -12 1
-15 -3 -3 -5 -17 -7 -31 -4 -16 3 -25 0 -25 -9 0 -12 -15 -4 -15 9 -1 4 -7 18
-14 32 -13 24 -13 24 5 9 24 -20 63 -30 91 -23 17 5 24 17 30 53 4 25 7 54 5
65 -1 10 2 24 7 30 5 6 12 27 16 46 4 19 12 40 17 47 12 15 -33 46 -67 46 -14
0 -25 3 -25 8 0 5 5 9 10 9 6 0 9 11 7 25 -5 39 -17 42 -17 4z m80 -89 c0 -5
-4 -10 -10 -10 -5 0 -10 5 -10 10 0 6 5 10 10 10 6 0 10 -4 10 -10z m-174
-317 l-16 -28 6 30 c8 38 17 52 21 38 3 -7 -3 -24 -11 -40z m71 -19 c-3 -3
-12 -4 -19 -1 -8 3 -5 6 6 6 11 1 17 -2 13 -5z m-130 -290 c-3 -3 -12 -4 -19
-1 -8 3 -5 6 6 6 11 1 17 -2 13 -5z"/>
<path d="M530 2020 c0 -5 5 -10 11 -10 5 0 7 5 4 10 -3 6 -8 10 -11 10 -2 0
-4 -4 -4 -10z"/>
<path d="M13 1994 c-16 -16 -16 -44 -2 -64 8 -12 10 -10 5 9 -3 13 0 33 5 43
13 24 8 31 -8 12z"/>
<path d="M28 1910 c-1 -34 0 -64 3 -66 11 -6 17 20 13 52 -2 16 -1 21 2 12 6
-20 24 -25 24 -7 0 6 7 9 14 6 10 -4 13 -1 9 9 -3 7 -9 14 -14 14 -4 0 -17 9
-28 21 -19 21 -19 21 -23 -41z"/>
<path d="M120 1850 c0 -5 5 -10 11 -10 5 0 7 5 4 10 -3 6 -8 10 -11 10 -2 0
-4 -4 -4 -10z"/>
<path d="M0 1818 c0 -14 7 -31 15 -38 13 -11 13 -8 3 21 -15 44 -18 48 -18 17z"/>
<path d="M2173 1805 c-18 -20 -16 -27 6 -20 16 5 18 2 14 -17 -5 -21 -4 -22
12 -7 14 14 15 21 6 38 -14 24 -21 26 -38 6z"/>
<path d="M0 1728 c0 -36 4 -35 14 5 4 16 2 27 -4 27 -5 0 -10 -14 -10 -32z"/>
<path d="M2178 1709 c0 -13 -1 -35 0 -49 0 -16 -1 -18 -5 -7 -2 9 -9 17 -14
17 -14 0 -11 -38 4 -43 8 -3 7 -10 -7 -26 -23 -25 -17 -34 24 -34 46 0 70 34
70 100 0 29 -4 53 -10 53 -5 0 -10 -8 -10 -17 0 -14 -4 -12 -25 7 l-25 23 -2
-24z m39 -76 c-3 -10 -5 -4 -5 12 0 17 2 24 5 18 2 -7 2 -21 0 -30z"/>
<path d="M68 1702 c-31 -3 -38 -7 -39 -25 -5 -88 39 -127 114 -104 88 28 24
137 -75 129z"/>
<path d="M2122 1680 c1 -44 18 -48 18 -6 0 20 -4 36 -9 36 -5 0 -9 -14 -9 -30z"/>
<path d="M2096 1611 c-3 -5 1 -11 9 -14 9 -4 12 -1 8 9 -6 16 -10 17 -17 5z"/>
<path d="M14 1556 c3 -14 2 -28 -4 -31 -13 -8 -13 -55 0 -55 6 0 11 6 11 13 4
41 9 72 13 84 3 7 -1 13 -10 13 -12 0 -15 -6 -10 -24z"/>
<path d="M2236 1564 c-4 -9 -4 -19 -1 -22 2 -3 7 3 11 12 4 9 4 19 1 22 -2 3
-7 -3 -11 -12z"/>
<path d="M2166 1521 c-4 -7 -5 -15 -2 -18 9 -9 19 4 14 18 -4 11 -6 11 -12 0z"/>
<path d="M2237 1503 c-2 -5 0 -21 4 -38 7 -29 7 -29 8 8 1 35 -3 46 -12 30z"/>
<path d="M331 1456 c-13 -54 -14 -79 -2 -72 14 9 33 98 23 108 -6 6 -14 -8
-21 -36z"/>
<path d="M2125 1480 c3 -5 8 -10 11 -10 2 0 4 5 4 10 0 6 -5 10 -11 10 -5 0
-7 -4 -4 -10z"/>
<path d="M2174 1465 c3 -8 1 -15 -4 -15 -6 0 -10 5 -10 11 0 6 -7 3 -16 -5
-13 -13 -13 -18 -2 -31 33 -36 38 -46 38 -68 0 -20 -4 -23 -30 -19 -16 2 -30
2 -30 -1 0 -17 32 -77 45 -85 14 -7 14 -11 0 -38 -19 -37 -21 -71 -2 -56 14
12 57 5 57 -9 0 -14 17 -10 23 5 4 10 1 13 -9 9 -18 -7 -18 4 1 23 18 19 20
115 3 132 -20 20 -27 13 -23 -23 3 -22 1 -35 -6 -35 -8 0 -10 15 -7 45 3 25 1
48 -4 51 -5 4 -8 15 -5 25 3 12 0 19 -9 19 -7 0 -18 10 -25 22 -10 18 -9 20 5
15 8 -3 18 -2 21 3 3 5 12 7 20 3 19 -7 19 4 1 23 -19 19 -40 18 -32 -1z m-10
-141 c19 -7 21 -40 4 -50 -8 -5 -9 -2 -5 11 5 11 1 22 -10 31 -19 14 -14 18
11 8z m73 -66 c-3 -7 -5 -2 -5 12 0 14 2 19 5 13 2 -7 2 -19 0 -25z"/>
<path d="M2190 1419 c0 -5 5 -7 10 -4 6 3 10 8 10 11 0 2 -4 4 -10 4 -5 0 -10
-5 -10 -11z"/>
<path d="M289 1304 c-11 -30 -3 -46 11 -24 10 16 13 50 5 50 -3 0 -10 -12 -16
-26z"/>
<path d="M2101 1295 c1 -19 18 -51 18 -35 0 8 -4 22 -9 30 -5 8 -9 11 -9 5z"/>
<path d="M381 1266 c-1 -15 -4 -16 -16 -6 -13 11 -15 8 -15 -13 0 -14 4 -28 9
-31 5 -3 7 -16 3 -28 -4 -15 -2 -19 7 -13 7 4 11 18 8 31 -2 13 0 25 5 26 6 2
8 15 5 28 -3 17 -5 19 -6 6z"/>
<path d="M0 1165 c0 -66 6 -65 48 6 l22 36 -26 -5 c-16 -3 -30 1 -35 9 -6 9
-9 -7 -9 -46z"/>
<path d="M2015 1154 c3 -38 6 -92 7 -121 2 -48 3 -50 16 -31 8 11 17 40 19 65
2 24 4 47 5 51 5 19 -15 72 -33 88 -19 17 -19 16 -14 -52z m35 -40 c0 -8 -4
-12 -10 -9 -5 3 -10 13 -10 21 0 8 5 12 10 9 6 -3 10 -13 10 -21z"/>
<path d="M2067 1205 c-4 -8 -2 -17 3 -20 6 -4 10 -4 10 -1 0 2 3 11 6 20 3 9
2 16 -4 16 -5 0 -12 -7 -15 -15z"/>
<path d="M237 1183 c-4 -3 -7 -15 -7 -26 0 -10 -9 -21 -20 -24 -21 -6 -27 -37
-10 -48 18 -11 11 -24 -22 -40 -28 -13 -86 -90 -76 -100 3 -3 65 -8 85 -6 7 1
19 13 27 29 10 17 15 21 16 11 0 -9 6 -29 14 -43 l13 -26 27 40 c17 26 25 48
21 61 -4 11 -2 19 4 19 19 0 12 46 -9 65 -24 22 -28 2 -4 -22 11 -11 12 -19 5
-26 -17 -17 -38 20 -47 78 -4 28 -7 53 -6 58 2 9 -3 9 -11 0z"/>
<path d="M276 1181 c-4 -7 -5 -15 -2 -18 9 -9 19 4 14 18 -4 11 -6 11 -12 0z"/>
<path d="M2117 1184 c-4 -4 -7 -14 -7 -23 0 -11 3 -12 11 -4 6 6 10 16 7 23
-2 6 -7 8 -11 4z"/>
<path d="M90 1159 c0 -11 5 -17 10 -14 6 3 10 13 10 21 0 8 -4 14 -10 14 -5 0
-10 -9 -10 -21z"/>
<path d="M335 1160 c10 -11 22 -17 27 -14 5 3 1 12 -9 20 -27 20 -39 17 -18
-6z"/>
<path d="M320 1140 c0 -5 5 -10 11 -10 5 0 7 5 4 10 -3 6 -8 10 -11 10 -2 0
-4 -4 -4 -10z"/>
<path d="M2200 1130 c0 -5 -7 -10 -15 -10 -17 0 -19 -9 -6 -29 7 -11 11 -10
20 5 11 17 12 16 8 -9 -5 -34 8 -44 23 -17 9 17 8 27 -5 46 -16 26 -25 30 -25
14z"/>
<path d="M97 1124 c-4 -4 -1 -14 5 -23 9 -11 6 -10 -9 2 -11 10 -23 14 -26 10
-5 -7 23 -76 40 -102 4 -6 32 32 33 43 0 5 -7 3 -15 -4 -9 -7 -19 -10 -23 -6
-4 4 1 12 10 17 10 6 16 19 14 36 -3 27 -16 39 -29 27z"/>
<path d="M2090 1100 c0 -5 5 -10 11 -10 5 0 7 5 4 10 -3 6 -8 10 -11 10 -2 0
-4 -4 -4 -10z"/>
<path d="M40 1076 c0 -14 5 -26 10 -26 6 0 10 9 10 19 0 11 -4 23 -10 26 -6 4
-10 -5 -10 -19z"/>
<path d="M9 1085 c-6 -25 -4 -63 3 -59 11 7 10 -8 -2 -26 -6 -9 -5 -19 2 -28
9 -11 13 -11 20 0 6 10 10 10 17 -2 6 -8 12 -12 15 -9 3 3 -2 14 -12 25 -10
11 -19 26 -20 34 -1 23 -20 76 -23 65z"/>
<path d="M155 1070 c-3 -5 -1 -10 4 -10 6 0 11 5 11 10 0 6 -2 10 -4 10 -3 0
-8 -4 -11 -10z"/>
<path d="M2170 1050 c-13 -8 -12 -10 3 -10 9 0 17 5 17 10 0 12 -1 12 -20 0z"/>
<path d="M2137 1043 c-4 -3 -7 -16 -8 -27 0 -21 -1 -21 -9 -1 -6 14 -9 3 -9
-40 0 -33 4 -67 9 -75 8 -12 10 -10 10 10 0 14 7 36 16 48 10 15 12 27 6 38
-5 9 -7 25 -5 35 5 20 1 24 -10 12z"/>
<path d="M2175 969 c4 -5 0 -18 -9 -28 -26 -28 -27 -131 -1 -131 8 0 15 5 15
11 0 6 9 9 20 6 35 -9 50 18 50 89 l0 64 -41 0 c-26 0 -38 -4 -34 -11z"/>
<path d="M0 900 c0 -25 4 -39 10 -35 13 8 13 62 0 70 -6 4 -10 -10 -10 -35z"/>
<path d="M200 931 c0 -6 5 -13 10 -16 6 -3 10 1 10 9 0 9 -4 16 -10 16 -5 0
-10 -4 -10 -9z"/>
<path d="M2084 884 c3 -9 6 -20 6 -26 0 -6 6 -6 15 2 12 10 12 14 0 26 -18 19
-29 18 -21 -2z"/>
<path d="M2050 878 c0 -9 5 -20 10 -23 13 -8 13 5 0 25 -8 13 -10 13 -10 -2z"/>
<path d="M2122 840 c0 -14 2 -19 5 -12 2 6 2 18 0 25 -3 6 -5 1 -5 -13z"/>
<path d="M2160 769 c0 -10 4 -29 10 -43 8 -22 12 -24 41 -16 38 11 47 19 33
28 -6 4 -13 14 -16 23 -4 9 -20 19 -37 21 -25 4 -31 1 -31 -13z m47 -36 c-3
-10 -5 -4 -5 12 0 17 2 24 5 18 2 -7 2 -21 0 -30z"/>
</g>
</svg>
